<?xml version="1.0" standalone="no"?><!DOCTYPE svg PUBLIC "-//W3C//DTD SVG 1.1//EN" "http://www.w3.org/Graphics/SVG/1.1/DTD/svg11.dtd"><svg t="1760794177891" class="icon" viewBox="0 0 1024 1024" version="1.1" xmlns="http://www.w3.org/2000/svg" p-id="30688" xmlns:xlink="http://www.w3.org/1999/xlink" width="200" height="200"><path d="M367.274667 595.968c-61.098667 0-110.933333-51.712-110.933334-114.346667 0-62.691556 49.834667-114.346667 110.933334-114.346666 61.098667 0 110.933333 51.655111 110.933333 114.346666 0 62.634667-49.834667 114.346667-110.933333 114.346667z m0-169.984c-27.306667 0-49.891556 25.031111-49.891556 55.637333 0 30.549333 22.528 55.580444 49.891556 55.580445 27.306667 0 50.631111-25.031111 50.631111-55.580445 0-30.549333-22.528-55.637333-50.631111-55.637333zM138.922667 525.482667v-226.417778H56.888889v296.106667h188.131555V525.482667H138.922667zM364.088889 795.648a249.912889 249.912889 0 0 1-173.738667-68.892444l28.16-28.216889a208.554667 208.554667 0 0 0 149.560889 57.969777c56.32-0.796444 108.544-22.755556 147.114667-61.895111l29.013333 27.420445A252.643556 252.643556 0 0 1 368.810667 796.444444h-3.982223l-0.853333-0.796444z" p-id="30689"></path><path d="M364.828444 722.830222c-48.241778 0-93.297778-18.033778-127.829333-50.119111l24.917333-25.031111c58.709333 54.784 152.007111 54.044444 208.213334-3.185778l25.770666 24.291556c-33.735111 34.474667-79.587556 54.044444-128.625777 54.840889h-3.242667l0.796444-0.796445z" p-id="30690"></path><path d="M365.681778 658.602667c-34.588444 0-67.584-12.515556-92.501334-36.010667l22.528-22.755556c18.488889 18.033778 43.406222 27.420444 69.973334 27.420445h1.592889c26.510222 0 51.427556-10.922667 70.769777-29.752889l23.324445 21.959111a130.730667 130.730667 0 0 1-93.297778 39.139556h-2.389333z m149.504-386.901334A210.488889 210.488889 0 0 0 368.071111 209.806222h-3.242667c-54.613333 0-106.097778 20.366222-145.521777 58.026667l-28.16-28.216889A249.912889 249.912889 0 0 1 364.828444 170.666667h4.039112a247.864889 247.864889 0 0 1 175.274666 74.410666l-28.956444 27.420445v-0.796445z" p-id="30691"></path><path d="M471.04 321.820444c-56.32-57.173333-150.414222-58.709333-208.327111-3.128888l-24.917333-25.031112c72.362667-68.949333 188.984889-66.56 259.697777 3.868445l-25.713777 24.291555H471.04z" p-id="30692"></path><path d="M438.044444 368.810667a101.831111 101.831111 0 0 0-70.769777-29.752889h-1.592889c-26.567111 0-50.631111 9.386667-69.973334 27.420444l-22.528-22.755555a134.030222 134.030222 0 0 1 92.501334-36.010667h2.389333c35.384889 0 68.323556 14.904889 93.297778 39.196444l-23.324445 21.902223zM756.451556 394.638222c0-37.546667-26.567111-69.688889-64.341334-85.333333-5.006222-3.072-14.620444-5.632-28.899555-7.566222a232.106667 232.106667 0 0 0-36.238223-2.616889H512.796444v296.049778h82.033778V367.274667h61.098667s6.428444 2.275556 9.671111 3.128889c8.931556 5.688889 14.336 15.36 14.449778 25.827555a28.899556 28.899556 0 0 1-8.021334 19.569778c-8.078222 4.721778-19.342222 8.647111-32.199111 8.647111h-44.202666v69.688889h27.306666l59.505778 100.238222h76.401778v-21.162667c-11.264-17.976889-24.120889-40.732444-28.16-46.990222-1.592889-3.128889-19.285333-32.085333-29.752889-50.062222 32.995556-17.294222 55.523556-47.047111 55.523556-81.521778z m150.357333 200.533334v-23.495112h-0.796445a103.196444 103.196444 0 0 1-23.324444 19.569778c-8.078222 4.721778-19.342222 7.054222-32.995556 7.054222-7.224889 0-13.653333-0.796444-20.878222-2.332444a61.724444 61.724444 0 0 1-20.935111-9.443556 44.828444 44.828444 0 0 1-16.042667-17.976888 67.811556 67.811556 0 0 1-6.428444-31.288889c0-13.368889 1.592889-24.348444 3.982222-34.531556a54.727111 54.727111 0 0 1 15.303111-25.031111 67.128889 67.128889 0 0 1 28.103111-14.108444c12.060444-3.128889 27.363556-4.721778 45.852445-4.721778h28.956444V434.631111a31.914667 31.914667 0 0 0-6.428444-19.626667c-3.982222-5.461333-12.060444-7.793778-23.324445-7.793777a32.938667 32.938667 0 0 0-20.935111 6.257777 24.974222 24.974222 0 0 0-12.060444 17.237334h-57.059556c1.592889-20.366222 10.467556-36.807111 26.510223-50.119111 8.078222-6.257778 16.896-10.979556 28.16-14.108445 10.467556-3.128889 23.324444-5.518222 36.181333-5.518222 12.060444 0 24.120889 1.592889 34.588444 4.721778 10.467556 3.128889 20.081778 7.850667 28.16 13.312 16.611556 13.255111 26.055111 33.166222 25.713778 54.044444v159.800889h-58.709333l-1.592889 2.275556z m0-98.702223c-6.428444-0.796444-12.060444-1.536-16.099556-1.536-12.856889 0-23.324444 2.275556-32.995555 7.054223-8.817778 4.664889-13.653333 13.312-13.653334 25.827555 0 8.590222 2.446222 15.644444 8.078223 21.162667 5.632 5.461333 12.856889 7.793778 22.471111 7.793778 9.671111 0 17.692444-2.332444 23.324444-7.793778 5.688889-5.518222 8.078222-12.515556 8.078222-21.959111v-31.288889l0.796445 0.739555z" p-id="30693"></path></svg>