<?xml version="1.0" standalone="no"?><!DOCTYPE svg PUBLIC "-//W3C//DTD SVG 1.1//EN" "http://www.w3.org/Graphics/SVG/1.1/DTD/svg11.dtd"><svg t="1760793994186" class="icon" viewBox="0 0 1024 1024" version="1.1" xmlns="http://www.w3.org/2000/svg" p-id="15749" xmlns:xlink="http://www.w3.org/1999/xlink" width="200" height="200"><path d="M640 854.016V512H384v342.016h256z m-6.016-426.026667c25.984 0 48 22.016 48 48v413.994667c0 25.984-22.016 48-48 48H389.973333a48.682667 48.682667 0 0 1-48-48v-413.994667c0-25.984 22.016-50.005333 48-50.005333zM512 41.984c128 0 246.016 54.016 329.984 137.984l-59.989333 59.989333C711.978667 169.941333 617.984 127.957333 512 127.957333s-200.021333 41.984-269.994667 112L182.016 179.968C266.026667 95.957333 384 41.984 512 41.984zM297.984 301.994667C352 247.978667 427.989333 213.973333 512 213.973333s160 34.005333 214.016 88.021334l-61.994667 59.989333c-38.016-38.016-91.989333-61.994667-152.021333-61.994667s-114.005333 24.021333-152.021333 61.994667z" fill="" p-id="15750"></path></svg>