<?xml version="1.0" standalone="no"?><!DOCTYPE svg PUBLIC "-//W3C//DTD SVG 1.1//EN" "http://www.w3.org/Graphics/SVG/1.1/DTD/svg11.dtd"><svg t="1760794015843" class="icon" viewBox="0 0 1024 1024" version="1.1" xmlns="http://www.w3.org/2000/svg" p-id="17729" xmlns:xlink="http://www.w3.org/1999/xlink" width="200" height="200"><path d="M912.290909 209.454545C809.890909 97.745455 667.927273 30.254545 512 30.254545S214.109091 97.745455 111.709091 209.454545L93.090909 188.509091C200.145455 72.145455 349.090909 0 512 0s311.854545 72.145455 418.909091 188.509091l-18.618182 20.945454zM814.545455 314.181818c-76.8-83.781818-183.854545-134.981818-302.545455-134.981818s-225.745455 51.2-302.545455 134.981818l-18.618181-20.945454c81.454545-88.436364 195.490909-144.290909 321.163636-144.290909s239.709091 55.854545 321.163636 144.290909l-18.618181 20.945454zM716.8 418.909091c-51.2-55.854545-125.672727-90.763636-204.8-90.763636s-151.272727 34.909091-204.8 90.763636l-18.618182-20.945455c58.181818-62.836364 137.309091-100.072727 223.418182-100.072727s167.563636 37.236364 223.418182 100.072727l-18.618182 20.945455zM965.818182 1024h-907.636364C25.6 1024 0 998.4 0 965.818182v-186.181818C0 747.054545 25.6 721.454545 58.181818 721.454545h907.636364c32.581818 0 58.181818 25.6 58.181818 58.181819v186.181818c0 32.581818-25.6 58.181818-58.181818 58.181818z m-907.636364-279.272727c-18.618182 0-34.909091 16.290909-34.909091 34.909091v186.181818c0 18.618182 16.290909 34.909091 34.909091 34.909091h907.636364c18.618182 0 34.909091-16.290909 34.909091-34.909091v-186.181818c0-18.618182-16.290909-34.909091-34.909091-34.909091h-907.636364z" fill="#2B2B33" p-id="17730"></path><path d="M826.181818 954.181818c-44.218182 0-81.454545-37.236364-81.454545-81.454545s37.236364-81.454545 81.454545-81.454546 81.454545 37.236364 81.454546 81.454546-37.236364 81.454545-81.454546 81.454545z m0-139.636363c-32.581818 0-58.181818 25.6-58.181818 58.181818s25.6 58.181818 58.181818 58.181818 58.181818-25.6 58.181818-58.181818-25.6-58.181818-58.181818-58.181818zM116.363636 861.090909h279.272728v23.272727H116.363636zM244.363636 465.454545h23.272728l93.090909 279.272728h-23.272728l-93.090909-279.272728z m535.272728 0l-93.090909 279.272728h-23.272728l93.090909-279.272728h23.272728z" fill="#2B2B33" p-id="17731"></path></svg>