<?xml version="1.0" standalone="no"?><!DOCTYPE svg PUBLIC "-//W3C//DTD SVG 1.1//EN" "http://www.w3.org/Graphics/SVG/1.1/DTD/svg11.dtd"><svg t="1760793912666" class="icon" viewBox="0 0 1024 1024" version="1.1" xmlns="http://www.w3.org/2000/svg" p-id="14394" xmlns:xlink="http://www.w3.org/1999/xlink" width="200" height="200"><path d="M843.220154 232.95581a23.604804 23.604804 0 0 1-21.03188-34.510223 6.396902 6.396902 0 0 0-1.439893-7.341094 6.562135 6.562135 0 0 0-7.27028-1.557917 23.652014 23.652014 0 1 1-20.44176-42.653881 53.913372 53.913372 0 0 1 61.207257 10.763791 53.346857 53.346857 0 0 1 10.032041 62.50552 23.604804 23.604804 0 0 1-21.055485 12.793804z m65.432517 6.278878a23.604804 23.604804 0 0 1-20.913857-34.675457 59.956202 59.956202 0 0 0-80.563195-80.256333 23.652014 23.652014 0 1 1-22.212121-41.756899 107.378253 107.378253 0 0 1 124.963832 19.568383 105.537078 105.537078 0 0 1 19.662802 124.586155 23.604804 23.604804 0 0 1-20.937461 12.534151z m61.820981 10.150066a23.604804 23.604804 0 0 1-20.347341-35.666859 111.579908 111.579908 0 0 0-151.448422-152.085752 23.652014 23.652014 0 1 1-23.864457-40.836311 158.883935 158.883935 0 0 1 216.031166 217.022568 23.604804 23.604804 0 0 1-20.370946 11.566354z m-512.861575 774.473617a444.549273 444.549273 0 1 1 445.399046-444.572877 445.493465 445.493465 0 0 1-445.399046 444.572877z m0-841.818123a397.26885 397.26885 0 1 0 398.024204 397.26885A398.118623 398.118623 0 0 0 457.612077 182.016643z m-69.917429 410.393121l-237.440723-136.907862 23.604804-40.954335 237.440723 136.907863z m125.530347-0.778958l-23.604804-40.954335 236.04804-136.034485 23.604804 40.954335z m-21.456767 284.768355h-47.351236V616.41585h47.351236v260.006916z m-34.156151-222.664116a74.473156 74.473156 0 1 1 74.614785-74.473156 74.63839 74.63839 0 0 1-74.614785 74.473156z m0-101.689495a27.216339 27.216339 0 1 0 27.239944 27.192734 27.263549 27.263549 0 0 0-27.239944-27.192734z m0 358.368133a331.151795 331.151795 0 1 1 331.789124-331.175399 331.859939 331.859939 0 0 1-331.789124 331.293423z m0-615.046771a283.894977 283.894977 0 1 0 284.414283 283.894977 284.485097 284.485097 0 0 0-284.414283-283.871373z" fill="#1A1A1A" p-id="14395"></path></svg>