<?xml version="1.0" standalone="no"?><!DOCTYPE svg PUBLIC "-//W3C//DTD SVG 1.1//EN" "http://www.w3.org/Graphics/SVG/1.1/DTD/svg11.dtd"><svg t="1760793646686" class="icon" viewBox="0 0 1024 1024" version="1.1" xmlns="http://www.w3.org/2000/svg" p-id="8595" xmlns:xlink="http://www.w3.org/1999/xlink" width="200" height="200"><path d="M905.6 356.266667l-341.333333-263.68a85.333333 85.333333 0 0 0-104.32 0l-341.333334 263.68A85.333333 85.333333 0 0 0 85.333333 423.893333V832a85.333333 85.333333 0 0 0 85.333334 85.333333h682.666666a85.333333 85.333333 0 0 0 85.333334-85.333333V423.893333a85.333333 85.333333 0 0 0-33.066667-67.626666zM874.666667 832a21.333333 21.333333 0 0 1-21.333334 21.333333H170.666667a21.333333 21.333333 0 0 1-21.333334-21.333333V423.893333a21.333333 21.333333 0 0 1 8.32-16.853333l341.333334-263.68a21.333333 21.333333 0 0 1 26.026666 0l341.333334 263.68a21.333333 21.333333 0 0 1 8.32 16.853333z" fill="#3E3E3E" p-id="8596"></path><path d="M512 725.333333m-42.666667 0a42.666667 42.666667 0 1 0 85.333334 0 42.666667 42.666667 0 1 0-85.333334 0Z" fill="#3E3E3E" p-id="8597"></path><path d="M411.946667 629.76A21.333333 21.333333 0 0 0 441.386667 661.333333c49.28-47.36 91.946667-47.36 141.226666 0a21.333333 21.333333 0 1 0 29.653334-30.72c-64.853333-63.36-135.466667-63.36-200.32-0.853333z" fill="#3E3E3E" p-id="8598"></path><path d="M337.28 544.64A21.333333 21.333333 0 0 0 366.72 576c98.986667-94.08 193.493333-94.293333 290.56 0a21.333333 21.333333 0 1 0 29.653333-30.72c-113.493333-110.293333-234.026667-110.293333-349.653333-0.64z" fill="#3E3E3E" p-id="8599"></path><path d="M262.826667 456.533333a21.333333 21.333333 0 0 0 29.226666 31.146667c147.626667-137.813333 292.693333-137.813333 440.106667 0a21.333333 21.333333 0 1 0 29.226667-31.146667C597.333333 303.573333 426.666667 303.573333 262.826667 456.533333z" fill="#3E3E3E" p-id="8600"></path></svg>