<?xml version="1.0" standalone="no"?><!DOCTYPE svg PUBLIC "-//W3C//DTD SVG 1.1//EN" "http://www.w3.org/Graphics/SVG/1.1/DTD/svg11.dtd"><svg t="1760794105346" class="icon" viewBox="0 0 1024 1024" version="1.1" xmlns="http://www.w3.org/2000/svg" p-id="24443" xmlns:xlink="http://www.w3.org/1999/xlink" width="200" height="200"><path d="M96 532.6v322c0 11.8 9.6 21.4 21.4 21.4h30.9c9.7 0 19.2-2 27.8-5.6 8.3-3.5 15.9-8.4 22.3-14.5l1.4-1.2c6.7-6.7 12.1-14.7 15.8-23.7 3.6-8.6 5.6-18.1 5.6-27.8v-82.4h33c0.5 1.2 0.9 2.4 1.4 3.6 4.8 11.5 11.7 21.8 20.2 30.3h0.1c8.6 8.5 18.8 15.4 30.2 20.2 11 4.6 23 7.1 35.5 7.1 12 0 23.7-2.4 34.4-6.7l1.2-0.4c10.8-4.5 20.6-10.9 28.9-19l1.3-1.2c8.5-8.5 15.4-18.8 20.1-30.3 4.6-11 7.1-23 7.1-35.5 0-12.4-2.6-24.4-7.1-35.5a92.13 92.13 0 0 0-18.5-28.5l14.4-24.9 247.3 142.7c5.1 3 10.7 4.8 16.2 5.5h0.1c5.8 0.8 11.7 0.3 17.1-1.1 5.5-1.5 10.8-4 15.5-7.6 4-3.1 7.6-7 10.5-11.6l1-1.5L744 703l45.3 26.2c10.2 5.9 23.3 2.5 29.2-7.8l84.2-145.3c5.2-9.1 3-20.5-4.8-27l19.4-13.3 0.7-0.6c3.5-2.6 7-6.4 8.7-12 3-9.7 1.2-18.9-9.8-25.8l-0.6-0.4-594.6-343c-5.3-3-11-4.9-16.7-5.6-5.9-0.8-11.8-0.3-17.3 1.1-5.7 1.5-11 4.1-15.8 7.7-4 3.1-7.7 7-10.5 11.7l-1 1.5L176 316.5c-3 5.2-4.8 10.8-5.6 16.6-0.7 5.5-0.4 11 0.9 16.3l0.3 1.3c1.5 5.6 4.1 10.9 7.7 15.7 2.5 3.2 5.4 6.2 8.9 8.7l-16.3 29c-2.9 5.1-4.7 10.7-5.4 16.3-0.8 5.9-0.3 11.7 1.1 17.1 1.5 5.5 4 10.8 7.6 15.5 3.4 4.4 7.7 8.3 13 11.4l198 114.4-13.2 22.7c-9.9-3.6-20.6-5.6-31.6-5.6-12.5 0-24.4 2.5-35.5 7.1-11.4 4.7-21.6 11.6-30.2 20.1l-0.1 0.1c-8.5 8.5-15.4 18.8-20.1 30.1-3.2 7.8-5.4 16.1-6.4 24.6h-27.9v-93.8c0-9.3-1.8-18.3-5.1-26.6l-0.4-1.2c-3.7-8.9-9.1-16.9-15.8-23.6-6.4-6.4-14-11.6-22.4-15.3l-1.2-0.5c-8.6-3.6-18.1-5.6-27.8-5.6h-30.9c-12-0.1-21.6 9.5-21.6 21.3zM765.1 666l24.1-42.3L850 582l-57.8 99.7-27.1-15.7z m-55.8-39.3l-0.8-0.2c-157.1-77.2-338.9-196.6-495-285.8l-0.3-0.3c-0.2-0.2-0.3-0.5-0.4-0.8l-0.2-1c0.1-0.2 0.2-0.5 0.4-0.9 26.5-49.1 57.2-97.3 84.4-146.2l0.3-0.3c0.2-0.2 0.5-0.3 0.7-0.4 0.4-0.1 0.8-0.1 1.1-0.1 0.3 0 0.5 0.1 0.7 0.2l567.1 327.3-158 108.5zM209.4 427.3l-0.3-0.3-0.2-0.6-0.1-0.7c3.9-8.6 10-19.2 15.9-29.3l462 266.8c2.9 1.7 6 3 9.1 4l2.2 0.7c3.8 1 8 1.6 12.2 1.5 1.5 0 3-0.1 4.5-0.3-11 19.4-20.4 35.5-21.4 36.4l-0.6 0.3-0.6 0.1-0.5-0.1-482.2-278.5z m81.8 261.5c0-6.9 1.3-13.4 3.7-19.3 2.5-6 6.2-11.6 10.8-16.2v-0.1c4.7-4.7 10.2-8.3 16.3-10.8 5.8-2.4 12.3-3.7 19.3-3.7 6.9 0 13.4 1.3 19.2 3.7 6.1 2.5 11.6 6.2 16.2 10.8l0.1 0.1c4.6 4.7 8.3 10.2 10.9 16.2 2.4 5.8 3.7 12.3 3.7 19.3s-1.3 13.4-3.7 19.3c-2.4 6-6.2 11.5-10.9 16.2l-0.9 0.9c-4.4 4.2-9.7 7.6-15.4 10l-0.8 0.4c-5.6 2.2-11.8 3.4-18.4 3.4-7 0-13.4-1.3-19.3-3.7-6.1-2.5-11.6-6.3-16.2-10.9v-0.1c-4.7-4.7-8.4-10.2-10.9-16.2-1.4-3.5-2.5-7.1-3.1-10.9 0-0.6-0.1-1.2-0.2-1.7-0.2-2.3-0.4-4.5-0.4-6.7zM138.8 554h9.5c4.1 0 8 0.8 11.5 2.2l0.8 0.3c3.3 1.5 6.4 3.6 8.9 6.1 2.8 2.8 5.1 6.2 6.6 9.9l0.3 0.7c1.3 3.3 1.9 6.9 1.9 10.8V802.9c0 4.1-0.8 8-2.2 11.5-1.5 3.6-3.8 7-6.6 9.8l-0.8 0.8c-2.6 2.5-5.7 4.4-9 5.8-3.5 1.4-7.3 2.2-11.4 2.2h-9.5V554z" fill="#1E1E1E" p-id="24444"></path></svg>