<?xml version="1.0" standalone="no"?><!DOCTYPE svg PUBLIC "-//W3C//DTD SVG 1.1//EN" "http://www.w3.org/Graphics/SVG/1.1/DTD/svg11.dtd"><svg t="1760793982275" class="icon" viewBox="0 0 1024 1024" version="1.1" xmlns="http://www.w3.org/2000/svg" p-id="14544" xmlns:xlink="http://www.w3.org/1999/xlink" width="200" height="200"><path d="M787.96 807.04c0 42.15-34.17 76.32-76.32 76.32-42.15 0-76.32-34.17-76.32-76.32 0-42.15 34.17-76.32 76.32-76.32 20.32-0.26 39.88 7.7 54.25 22.07a75.356 75.356 0 0 1 22.07 54.25m-415.68 0c0 42.15-34.17 76.32-76.32 76.32-42.15 0-76.32-34.17-76.32-76.32 0-42.15 34.17-76.32 76.32-76.32 20.36-0.4 40 7.52 54.4 21.92a74.857 74.857 0 0 1 21.92 54.4" fill="#333333" p-id="14545"></path><path d="M258.52 576.16H419.8c8.48 0 15.36-6.88 15.36-15.36v-76.32a15.351 15.351 0 0 0-15.35-16.32h-84c-9.49 0.36-18.38 4.72-24.48 12l-59.52 84c-4.33 6.72-0.01 12 6.71 12zM463 560.8c0 8.48 6.88 15.36 15.36 15.36H631c8.64 0 11.04-5.28 6.72-12l-57.6-82.08c-5.73-8-14.68-13.09-24.48-13.92h-76.32c-4.59-0.32-9.09 1.43-12.25 4.77a15.402 15.402 0 0 0-4.07 12.51v75.36z m-324 39.84a517.155 517.155 0 0 0 61.92-51.84 968.996 968.996 0 0 1 76.32-80.64A85.918 85.918 0 0 1 341.56 436H561.4c60.48 0 124.8 139.2 166.56 139.2 32.01 12.93 64.03 25.87 96.04 38.8a228.78 228.78 0 0 1 44 38 228.947 228.947 0 0 1 27 37v84.92c0 17.23-13.97 31.2-31.2 31.2h-48A107.036 107.036 0 0 0 708.77 697.6c-58.05 1.53-104.59 48.5-105.6 106.56H403.48c2.68-40.04-17.16-78.24-51.46-99.07-34.3-20.84-77.34-20.84-111.64 0-34.3 20.83-54.14 59.03-51.46 99.07h-31.2c-16.68-0.25-30.21-13.57-30.72-30.24V626.08a35.53 35.53 0 0 1 12-25.44z m0 0M242.44 312.7l-11.23-9.95c26.58-30 64.13-47.01 105.73-47.89 41.37-0.87 81.87 14.33 114.03 42.81l-9.95 11.23c-60.3-53.43-149.39-51.73-198.58 3.8z" fill="#333333" p-id="14546"></path><path d="M264 336.19l-11.23-9.95c21.39-24.14 51.6-37.83 85.06-38.54 33.24-0.69 65.76 11.5 91.58 34.38l-9.95 11.23c-22.99-20.36-51.86-31.23-81.32-30.61-29.22 0.62-55.55 12.51-74.14 33.49z" fill="#333333" p-id="14547"></path><path d="M284.07 363.52l-11.23-9.95c16.56-18.69 39.94-29.29 65.82-29.84 25.65-0.55 50.77 8.88 70.69 26.53l-9.95 11.23c-17.09-15.14-38.57-23.24-60.43-22.76-21.65 0.46-41.15 9.27-54.9 24.79z" fill="#333333" p-id="14548"></path><path d="M341.42 374.84m-11.79 0a11.79 11.79 0 1 0 23.58 0 11.79 11.79 0 1 0-23.58 0Z" fill="#333333" p-id="14549"></path><path d="M341.42 387.13c-6.77 0-12.29-5.51-12.29-12.29s5.51-12.29 12.29-12.29 12.29 5.51 12.29 12.29-5.52 12.29-12.29 12.29z m0-23.57c-6.22 0-11.29 5.06-11.29 11.29s5.06 11.29 11.29 11.29 11.29-5.06 11.29-11.29-5.07-11.29-11.29-11.29z" fill="#333333" p-id="14550"></path><path d="M350.07 421.57h0.07v15h-0.07zM350.07 420.7h0.07v0.87h-0.07v-0.87z" fill="#686869" p-id="14551"></path><path d="M350.07 421.57v15h-1.79v-15h1.79zM348.28 420.7h1.79v0.87h-1.79v-0.87z" fill="#6C6C6D" p-id="14552"></path><path d="M348.28 421.57v15h-0.8v-15h0.8zM347.48 420.7h0.8v0.87h-0.8v-0.87z" fill="#707070" p-id="14553"></path><path d="M347.48 421.57v15h-0.35v-15h0.35zM347.13 420.7h0.35v0.87h-0.35v-0.87z" fill="#737374" p-id="14554"></path><path d="M346.95 421.57h0.18v15h-0.18zM346.95 420.7h0.18v0.87h-0.18v-0.87z" fill="#777777" p-id="14555"></path><path d="M346.81 421.57h0.14v15h-0.14zM346.81 420.7h0.14v0.87h-0.14v-0.87z" fill="#7A7A7B" p-id="14556"></path><path d="M346.75 421.57h0.06v15h-0.06zM346.75 420.7h0.06v0.87h-0.06v-0.87z" fill="#7E7E7F" p-id="14557"></path><path d="M346.69 421.57h0.06v15h-0.06zM346.69 420.7h0.06v0.87h-0.06v-0.87z" fill="#828282" p-id="14558"></path><path d="M346.61 421.57h0.07v15h-0.07zM346.61 420.7h0.07v0.87h-0.07v-0.87z" fill="#858586" p-id="14559"></path><path d="M346.55 421.57h0.06v15h-0.06zM346.55 420.7h0.06v0.87h-0.06v-0.87z" fill="#89898A" p-id="14560"></path><path d="M346.51 421.57h0.04v15h-0.04zM346.51 420.7h0.04v0.87h-0.04v-0.87z" fill="#8C8C8D" p-id="14561"></path><path d="M346.49 421.57h0.03v15h-0.03zM346.49 420.7h0.03v0.87h-0.03v-0.87z" fill="#909091" p-id="14562"></path><path d="M346.46 421.57h0.03v15h-0.03zM346.46 420.7h0.03v0.87h-0.03v-0.87z" fill="#949494" p-id="14563"></path><path d="M346.43 421.57h0.03v15h-0.03zM346.43 420.7h0.03v0.87h-0.03v-0.87z" fill="#979798" p-id="14564"></path><path d="M346.41 421.57h0.03v15h-0.03zM346.41 420.7h0.03v0.87h-0.03v-0.87z" fill="#9B9B9C" p-id="14565"></path><path d="M346.38 421.57h0.03v15h-0.03zM346.38 420.7h0.03v0.87h-0.03v-0.87z" fill="#9E9E9F" p-id="14566"></path><path d="M346.35 421.57h0.03v15h-0.03zM346.35 420.7h0.03v0.87h-0.03v-0.87z" fill="#A2A2A3" p-id="14567"></path><path d="M346.32 421.57h0.04v15h-0.04zM346.32 420.7h0.04v0.87h-0.04v-0.87z" fill="#A6A6A7" p-id="14568"></path><path d="M346.29 421.57h0.03v15h-0.03zM346.29 420.7h0.03v0.87h-0.03v-0.87z" fill="#A9A9AA" p-id="14569"></path><path d="M346.26 421.57h0.03v15h-0.03zM346.26 420.7h0.03v0.87h-0.03v-0.87z" fill="#ADADAE" p-id="14570"></path><path d="M346.24 421.57h0.03v15h-0.03zM346.24 420.7h0.03v0.87h-0.03v-0.87z" fill="#B0B0B1" p-id="14571"></path><path d="M346.21 421.57h0.03v15h-0.03zM346.19 420.7h0.02v0.87h-0.02v-0.87zM346.19 421.57h0.02v15h-0.02zM346.21 420.7h0.03v0.87h-0.03v-0.87z" fill="#B4B4B5" p-id="14572"></path><path d="M346.18 421.57h0.01v15h-0.01zM346.18 420.7h0.01v0.87h-0.01z" fill="#B0B0B1" p-id="14573"></path><path d="M346.17 421.57h0.01v15h-0.01zM346.17 420.7h0.01v0.87h-0.01z" fill="#ADADAE" p-id="14574"></path><path d="M346.15 421.57h0.02v15h-0.02zM346.15 420.7h0.02v0.87h-0.02v-0.87z" fill="#A9A9AA" p-id="14575"></path><path d="M346.15 421.57h0.01v15h-0.01zM346.15 420.7v0.87z" fill="#A6A6A7" p-id="14576"></path><path d="M346.13 421.57h0.02v15h-0.02zM346.13 420.7h0.02v0.87h-0.02v-0.87z" fill="#A2A2A3" p-id="14577"></path><path d="M346.12 421.57h0.01v15h-0.01zM346.12 420.7h0.01v0.87h-0.01z" fill="#9E9E9F" p-id="14578"></path><path d="M346.1 421.57h0.02v15h-0.02zM346.1 420.7h0.02v0.87h-0.02v-0.87z" fill="#9B9B9C" p-id="14579"></path><path d="M346.09 421.57h0.01v15h-0.01zM346.09 420.7h0.01v0.87h-0.01z" fill="#979798" p-id="14580"></path><path d="M346.07 421.57h0.02v15h-0.02zM346.07 420.7h0.02v0.87h-0.02v-0.87z" fill="#949494" p-id="14581"></path><path d="M346.06 421.57h0.01v15h-0.01zM346.06 420.7h0.01v0.87h-0.01z" fill="#909091" p-id="14582"></path><path d="M346.06 421.57h0.01v15h-0.01zM346.06 420.7v0.87z" fill="#8C8C8D" p-id="14583"></path><path d="M346.04 421.57h0.02v15h-0.02zM346.04 420.7h0.02v0.87h-0.02v-0.87z" fill="#89898A" p-id="14584"></path><path d="M346.03 421.57h0.01v15h-0.01zM346.03 420.7h0.01v0.87h-0.01z" fill="#858586" p-id="14585"></path><path d="M346.01 421.57h0.02v15h-0.02zM346.01 420.7h0.02v0.87h-0.02v-0.87z" fill="#828282" p-id="14586"></path><path d="M346 421.57h0.01v15H346zM346 420.7h0.01v0.87H346z" fill="#7E7E7F" p-id="14587"></path><path d="M345.98 421.57h0.02v15h-0.02zM345.98 420.7h0.02v0.87h-0.02v-0.87z" fill="#7A7A7B" p-id="14588"></path><path d="M345.97 421.57h0.01v15h-0.01zM345.97 420.7h0.01v0.87h-0.01z" fill="#777777" p-id="14589"></path><path d="M345.97 421.57h0.01v15h-0.01zM345.97 420.7v0.87z" fill="#737374" p-id="14590"></path><path d="M345.95 421.57h0.02v15h-0.02zM345.95 420.7h0.02v0.87h-0.02v-0.87z" fill="#707070" p-id="14591"></path><path d="M345.94 421.57h0.01v15h-0.01zM345.94 420.7h0.01v0.87h-0.01z" fill="#6C6C6D" p-id="14592"></path><path d="M345.92 421.57h0.02v15h-0.02zM345.92 420.7h0.02v0.87h-0.02v-0.87z" fill="#686869" p-id="14593"></path><path d="M345.91 421.57h0.01v15h-0.01zM345.91 420.7h0.01v0.87h-0.01z" fill="#656565" p-id="14594"></path><path d="M345.89 421.57h0.02v15h-0.02zM345.89 420.7h0.02v0.87h-0.02v-0.87z" fill="#616162" p-id="14595"></path><path d="M345.89 421.57v15h-3.62v-15h3.62zM342.28 420.7h3.62v0.87h-3.62v-0.87z" fill="#5E5E5E" p-id="14596"></path><path d="M320.55 416.52a25.66 7.23 0 1 0 51.32 0 25.66 7.23 0 1 0-51.32 0Z" fill="#9E9E9F" p-id="14597"></path><path d="M320.55 415.41a25.66 6.12 0 1 0 51.32 0 25.66 6.12 0 1 0-51.32 0Z" fill="#DBDCDC" p-id="14598"></path><path d="M357.41 415.6c-0.17-0.62-0.6-1.12-1.26-1.46-1.23-0.64-3.04-0.63-4.84 0.02l-0.34-0.94c2.06-0.75 4.17-0.73 5.64 0.03 0.91 0.47 1.52 1.19 1.76 2.09l-0.96 0.26z" fill="#B4B4B5" p-id="14599"></path></svg>